<svg xmlns="http://www.w3.org/2000/svg" viewBox="0 0 666.66 666.67"><defs><style>.a{fill:#ff51ff;}</style></defs><path class="a" d="M533.33,430V570c0,116.67-46.66,163.33-163.33,163.33H230C113.33,733.33,66.67,686.67,66.67,570V430c0-116.67,46.66-163.33,163.33-163.33H370C486.67,266.67,533.33,313.33,533.33,430Z" transform="translate(-66.67 -66.67)"/><path class="a" d="M570,66.67H430c-102.77,0-151,36.47-161,124.63-2.1,18.44,13.18,33.7,31.74,33.7H370c140,0,205,65,205,205v69.27c0,18.56,15.26,33.84,33.7,31.74,88.17-10,124.64-58.24,124.64-161V230C733.33,113.33,686.66,66.67,570,66.67Z" transform="translate(-66.67 -66.67)"/></svg>