<svg xmlns="http://www.w3.org/2000/svg" viewBox="0 0 666.67 533.33"><defs><style>.a{fill:#ffffff;fill-rule:evenodd;}</style></defs><path class="a" d="M333.17,133.33H466.83c126,0,189,0,228.18,39.06,27,26.88,35.36,65.06,38,127.26.52,12.33.78,18.5-1.52,22.62s-11.5,9.25-29.9,19.52a66.61,66.61,0,0,0,0,116.42c18.4,10.27,27.59,15.41,29.9,19.52s2,10.29,1.52,22.62c-2.61,62.2-11,100.38-38,127.26-39.15,39.06-102.16,39.06-228.18,39.06H333.17c-126,0-189,0-228.18-39.06-27-26.88-35.36-65.06-38-127.26-.52-12.33-.78-18.5,1.52-22.62s11.5-9.25,29.9-19.52a66.61,66.61,0,0,0,0-116.42c-18.4-10.27-27.59-15.41-29.9-19.52S66.5,312,67,299.65c2.61-62.2,11-100.38,38-127.26C144.14,133.33,207.15,133.33,333.17,133.33Zm185.09,149a25,25,0,0,1,0,35.36l-200.5,200a25,25,0,1,1-35.44-35.36l200.5-200A25.11,25.11,0,0,1,518.26,282.32ZM483.83,516.67a33.34,33.34,0,1,0-33.42-33.34A33.38,33.38,0,0,0,483.83,516.67ZM316.75,350a33.34,33.34,0,1,0-33.42-33.33A33.38,33.38,0,0,0,316.75,350Z" transform="translate(-66.67 -133.33)"/></svg>