<svg xmlns="http://www.w3.org/2000/svg" viewBox="0 0 738.46 738.46"><defs><style>.a{fill:#fff;}</style></defs><path class="a" d="M646.15,343.08c-43.07-16.93-49.23-33.85-49.23-50.77s12.31-33.85,27.7-46.16c26.15-21.53,40-53.84,40-89.23,0-67.69-44.62-126.15-123.08-126.15C469.23,30.77,426.15,80,420,140c0,6.15,3.08,10.77,7.69,13.85,58.46,36.92,93.85,101.53,93.85,180,0,58.46-23.08,110.77-64.62,147.69-3.07,3.08-3.07,9.23,0,12.31,10.77,7.69,35.39,18.46,50.77,26.15,4.62,1.54,7.69,3.08,12.31,3.08H706.15c35.39,0,63.08-29.23,63.08-61.54v-9.23C769.23,398.46,710.77,369.23,646.15,343.08Z" transform="translate(-30.77 -30.77)"/><path class="a" d="M440,556.92c-52.31-21.54-60-40-60-60s15.38-40,32.31-55.38C443.08,415.38,460,378.46,460,335.38c0-80-52.31-149.23-147.69-149.23-93.85,0-147.69,69.23-147.69,149.23,0,43.08,16.92,80,47.69,106.16,16.92,15.38,32.31,35.38,32.31,55.38s-7.7,40-61.54,60C106.15,587.69,30.77,623.08,30.77,687.69v20c0,33.85,27.69,61.54,63.08,61.54H520c35.38,0,64.62-27.69,64.62-61.54V686.15C584.62,623.08,516.92,587.69,440,556.92Z" transform="translate(-30.77 -30.77)"/></svg>