<svg xmlns="http://www.w3.org/2000/svg" viewBox="0 0 643.86 707.81"><defs><style>.a{fill:#ffffff;}</style></defs><path class="a" d="M370.37,407.7V230.25H320.48c-55.25,0-84.38-35.83-84.38-70.65,0-36.16,26.79-57.59,62.62-57.59,41.18,0,73.32,31.81,73.32,85v43.2H428v-43.2c0-53.23,32.14-85,73.32-85,35.83,0,63,21.43,63,57.59,0,34.82-30.14,70.65-84.71,70.65H429.63V407.7h236c36.5,0,56.25-14.06,56.25-49.89V280.13c0-35.49-19.75-49.88-56.25-49.88h-78c20.75-18.75,33.14-44.2,33.14-73,0-64.62-51.22-111.16-116.18-111.16-48.21,0-87.39,26.79-104.46,74.33-17.08-47.54-56.59-74.33-104.8-74.33-64.62,0-116.19,46.54-116.19,111.16,0,28.8,12.06,54.25,33.15,73h-78c-34.49,0-56.25,14.39-56.25,49.88v77.68c0,35.83,20.09,49.89,56.25,49.89Zm0,346.21V443.53H126V668.86c0,55.92,32.81,85,88.72,85Zm59.26-310.38V753.91H585.32c55.92,0,88.73-29.13,88.73-85V443.53Z" transform="translate(-78.07 -46.09)"/></svg>