<svg xmlns="http://www.w3.org/2000/svg" viewBox="0 0 666.67 666.67"><defs><style>.a{fill:#ffffff;fill-rule:evenodd;}</style></defs><path class="a" d="M733.33,400c0,184.09-149.24,333.33-333.33,333.33S66.67,584.09,66.67,400,215.9,66.67,400,66.67,733.33,215.9,733.33,400ZM400,258.33a37.5,37.5,0,0,0-37.5,37.5,25,25,0,0,1-50,0,87.5,87.5,0,1,1,150.27,61c-3.08,3.16-6,6.1-8.81,8.89-7.2,7.19-13.5,13.49-19,20.59-7.3,9.38-9.93,16.28-9.93,22.05v25a25,25,0,0,1-50,0v-25c0-21.84,10.17-39.52,20.47-52.76,7.63-9.79,17.21-19.36,25-27.12,2.35-2.34,4.53-4.52,6.44-6.49A37.5,37.5,0,0,0,400,258.33Zm0,308.34a33.34,33.34,0,1,0-33.33-33.34A33.34,33.34,0,0,0,400,566.67Z" transform="translate(-66.67 -66.67)"/></svg>