<svg xmlns="http://www.w3.org/2000/svg" viewBox="0 0 798.46 798.46"><defs><style>.a{fill:#ffffff;}</style></defs><path class="a" d="M182.36,641.37A323.67,323.67,0,0,0,375,724.05h0v75.18A398.47,398.47,0,0,1,129.27,694.46h0Zm442.21-6.43,49.17,49.16a25.16,25.16,0,0,0,4.32,3.45A398.63,398.63,0,0,1,425,799.23h0V724.05a323.86,323.86,0,0,0,199.56-89.11ZM400,125c151.88,0,275,123.12,275,275S551.88,675,400,675,125,551.88,125,400,248.12,125,400,125ZM76,425a323.54,323.54,0,0,0,72,180.12h0L94.66,658.41A398.2,398.2,0,0,1,.77,425H76Zm723.28,0a398,398,0,0,1-88,226.21,25.18,25.18,0,0,0-2.17-2.48h0L658,597.65a323.31,323.31,0,0,0,66-172.64h75.18ZM364.64,258.58A75,75,0,1,0,344,379.3h0L364.66,400,344,420.7a75,75,0,1,0,35.37,35.37h0L400,435.34l20.68,20.71a75,75,0,1,0,35.37-35.37h0L435.37,400l20.7-20.66A75,75,0,1,0,420.7,344h0L400,364.63l-20.7-20.7A75,75,0,0,0,364.64,258.58ZM293.93,470.71a25,25,0,1,1,0,35.36A25,25,0,0,1,293.93,470.71Zm176.78,0a25,25,0,1,1,0,35.36A25,25,0,0,1,470.71,470.71ZM700.79,136.32A398.29,398.29,0,0,1,799.23,375H724.05a323.55,323.55,0,0,0-76.42-185.5h0ZM94.66,141.59l53.24,53.28A323.46,323.46,0,0,0,76,375H.77A398.26,398.26,0,0,1,94.66,141.59ZM293.93,293.93a25,25,0,1,1,0,35.36A25,25,0,0,1,293.93,293.93Zm176.78,0a25,25,0,1,1,0,35.36A25,25,0,0,1,470.71,293.93ZM375,.77V76a323.67,323.67,0,0,0-192.63,82.66h0l-53.11-53.07A398.47,398.47,0,0,1,375,.77Zm50,0A398.38,398.38,0,0,1,665.58,100.88h0L612.42,154A323.58,323.58,0,0,0,425,76h0Z" transform="translate(-0.77 -0.77)"/></svg>