<svg xmlns="http://www.w3.org/2000/svg" viewBox="0 0 666.67 666.67"><defs><style>.a{fill:#fff;}</style></defs><path class="a" d="M266.67,66.67H533.33c110.46,0,200,89.54,200,200V533.33c0,110.46-89.54,200-200,200H266.67c-110.46,0-200-89.54-200-200V266.67C66.67,156.21,156.21,66.67,266.67,66.67Zm200,300a33.33,33.33,0,1,0,0,66.66h100a33.33,33.33,0,1,0,0-66.66ZM400,500a33.34,33.34,0,0,0,0,66.67H566.67a33.34,33.34,0,0,0,0-66.67Zm0-266.67A33.34,33.34,0,0,0,400,300H566.67a33.34,33.34,0,0,0,0-66.67ZM260.93,408.1l-23.56-23.57a33.34,33.34,0,0,0-48,46.32l.82.82,47.14,47.13a33.34,33.34,0,0,0,47.14,0l0,0,94.27-94.27a33.35,33.35,0,0,0-47.13-47.2h0l-70.74,70.74Z" transform="translate(-66.67 -66.67)"/></svg>